#N canvas 661 323 1124 474 12;
#X obj 18 52 adc~ 1 3 4 5;
#X obj 330 231 *~ 0.1;
#X obj 19 231 *~ 0.02;
#X obj 620 230 lop~ 10;
#X obj 718 231 lop~ 10;
#X obj 813 231 lop~ 10;
#X obj 330 333 outlet~;
#X obj 19 333 outlet~;
#X obj 620 332 outlet~;
#X obj 718 333 outlet~;
#X obj 813 333 outlet~;
#X text 134 6 adc 1 - microphone input;
#X text 133 23 adc 3 - accelerometer x;
#X text 133 39 adc 4 - accelerometer y;
#X text 133 56 adc 5 - accelerometer z;
#X text 17 369 Passed to output abstraction;
#X text 17 354 Unprocessed microphone signal;
#X text 328 353 Microphone signal to be processed;
#X text 328 368 Passed to pitchshifting abstraction;
#X text 630 353 Accelerometer outputs (x \, y \, z);
#X text 616 370 Passed to acc_magnitude~ abstraction;
#X text 77 220 Greatly reduce gain on signal;
#X text 77 234 sent directly to output;
#X text 76 248 This is because the speaker;
#X text 76 262 outputting this signal should;
#X text 77 276 be placed next to performer and;
#X text 76 291 not be (very) audible to audiences;
#X text 716 9 Reductions in microphone signal gain should be adjusted
depending upon the microphone being used and gain being applied by
the Bela adc;
#X connect 0 0 1 0;
#X connect 0 0 2 0;
#X connect 0 1 3 0;
#X connect 0 2 4 0;
#X connect 0 3 5 0;
#X connect 1 0 6 0;
#X connect 2 0 7 0;
#X connect 3 0 8 0;
#X connect 4 0 9 0;
#X connect 5 0 10 0;
