#N canvas 116 210 1337 558 12;
#X obj 68 119 deltasig~;
#X obj 68 183 abs~;
#X obj 68 95 lop~ 5;
#X obj 68 161 lop~ 5;
#X obj 723 124 loadbang;
#X obj 723 146 metro 10;
#X obj 723 170 snapshot~;
#X msg 723 349 100;
#X obj 723 251 moses 0.9;
#X obj 68 264 clip~ 0.3 1.5;
#X obj 783 349 scalelin 0.9 1.5 100 10;
#X obj 68 54 inlet~;
#X obj 68 423 outlet~;
#X obj 723 423 outlet;
#X obj 68 356 scalesiglin~ 0.3 1.5 0.3 1;
#X text 65 11 Acceleration Vector Magnitude;
#X text 66 27 Received from acc_magnitude~ abstraction;
#X text 146 104 Filter and calculate jerk;
#X text 178 264 Clip to use as parameter for amplitude control;
#X text 178 281 0.3 so as to never be 0 \, 1.5 to provide some range
;
#X text 268 356 Scale to range 1 maximum for amplitude control;
#X text 65 448 Amplitude control;
#X text 717 85 This used as control for pitchshifting window;
#X text 795 166 Convert from signal to control values;
#X text 796 250 Split at 0.9;
#X text 961 338 Below 0.9 set window size to 100ms;
#X text 959 356 Above 0.9 scale to minimum window size of 10ms;
#X text 720 448 Pitchshifting window size;
#X text 67 466 Passed to output abstraction;
#X text 720 464 Passed to pitchshifting abstraction;
#X text 126 170 Filter and ensure always positive value;
#X connect 0 0 3 0;
#X connect 1 0 9 0;
#X connect 2 0 0 0;
#X connect 3 0 1 0;
#X connect 4 0 5 0;
#X connect 5 0 6 0;
#X connect 6 0 8 0;
#X connect 7 0 13 0;
#X connect 8 0 7 0;
#X connect 8 1 10 0;
#X connect 9 0 6 0;
#X connect 9 0 14 0;
#X connect 10 0 13 0;
#X connect 11 0 2 0;
#X connect 14 0 12 0;
