#N canvas 334 352 1432 586 12;
#X obj 75 177 +;
#X msg 115 418 0;
#X msg 428 418 0;
#X obj 75 70 inlet;
#X obj 75 478 outlet;
#X obj 428 478 outlet;
#X obj 1090 70 inlet;
#X obj 75 418 i;
#X obj 75 252 sel 0;
#X obj 1090 108 t f f;
#X obj 1090 165 * 2;
#X obj 428 70 inlet;
#X obj 728 70 inlet;
#X obj 890 478 outlet;
#X msg 890 418 0;
#X msg 925 418 1;
#X obj 75 306 t b b b;
#X text 13 9 Lower pitched sensor zero;
#X text 12 28 and non-zero values;
#X text 13 45 Received from string_position_v2 abstraction;
#X text 356 45 Received from string_position_v2 abstraction;
#X text 356 25 Higher pitched sensor zero value;
#X text 686 45 Received from string_position_v2 abstraction;
#X text 686 25 Higher pitched sensor non-zero value;
#X text 1017 46 Received from string_position_v2 abstraction;
#X text 1017 26 Ghost sensor pitchshift value;
#X text 1139 121 then pass to multiply 2;
#X text 1123 165 Multiply 2 to use as active select;
#X text 1121 183 against addition of adjacent sensor;
#X text 1122 202 pitchshift values;
#X text 1122 232 e.g.;
#X text 1121 262 sensor 1 = 1;
#X text 1121 282 sensor 2 = 3;
#X text 1121 327 sensor 1 + 2 output value = 2;
#X text 1121 305 sensor 1 + 2 activation value = 4;
#X text 112 177 Add adjacent sensor values;
#X text 127 255 Select zero/non-zero through pitchshift value*2;
#X text 962 417 If inactive open spigot for higher pitched adjacent
sensor;
#X text 144 301 If active \, close spigot for higher pitched adjacent
sensor \, output zero to higher pitched adjacent sensor value list
index \, and output pitchshift value to ghost sensor list index;
#X text 71 505 Ghost sensor pitchshift value;
#X text 1140 107 Set as sensor active pitchshift value;
#X text 71 523 Passed to string_position_v2 abstraction;
#X text 418 536 Passed to string_position_v2 abstraction;
#X text 418 505 Higher pitched adjacent sensor pitchshift value if
ghost sensor active;
#X text 887 521 Passed to string_position_v2 abstraction;
#X text 887 504 Higher pitched adjacent sensor spigot control;
#X connect 0 0 8 0;
#X connect 1 0 4 0;
#X connect 2 0 5 0;
#X connect 3 0 0 0;
#X connect 6 0 9 0;
#X connect 7 0 4 0;
#X connect 8 0 16 0;
#X connect 8 1 1 0;
#X connect 8 1 15 0;
#X connect 9 0 10 0;
#X connect 9 1 7 1;
#X connect 10 0 8 1;
#X connect 11 0 0 1;
#X connect 12 0 0 1;
#X connect 14 0 13 0;
#X connect 15 0 13 0;
#X connect 16 0 7 0;
#X connect 16 1 2 0;
#X connect 16 2 14 0;
