#N canvas 2 6 1920 1166 12;
#X obj 73 859 array set notes-played;
#X obj 41 885 array max notes-played;
#X obj 41 830 t b l;
#X obj 71 101 sel 0;
#X obj 189 101 sel 0;
#X obj 309 101 sel 0;
#X msg 103 303 1;
#X msg 71 303 0;
#X msg 189 303 0;
#X msg 229 303 3;
#X msg 308 303 0;
#X msg 347 303 5;
#X obj 255 437 ghost_sensor;
#X msg 336 412 4;
#X obj 141 437 ghost_sensor;
#X msg 222 412 2;
#X obj 415 101 sel 0;
#X msg 413 303 0;
#X msg 452 303 7;
#X obj 372 437 ghost_sensor;
#X msg 455 412 6;
#X obj 41 665 pack f f f f f f f f f f f f f f f f f f f f f f f f
f f f f f, f 252;
#X obj 534 101 sel 0;
#X msg 532 303 0;
#X obj 655 101 sel 0;
#X msg 653 303 0;
#X msg 571 303 9;
#X msg 692 303 11;
#X obj 788 101 sel 0;
#X msg 786 303 0;
#X msg 825 303 13;
#X obj 913 101 sel 0;
#X msg 911 303 0;
#X obj 1032 101 sel 0;
#X msg 1030 303 0;
#X obj 1146 101 sel 0;
#X msg 1144 303 0;
#X obj 1258 101 sel 0;
#X msg 1256 303 0;
#X obj 1361 101 sel 0;
#X msg 1359 303 0;
#X obj 1462 101 sel 0;
#X msg 1460 303 0;
#X obj 1568 101 sel 0;
#X msg 1566 303 0;
#X obj 1670 101 sel 0;
#X msg 1668 303 0;
#X msg 950 303 15;
#X msg 1069 303 17;
#X msg 1296 303 21;
#X msg 1398 303 23;
#X msg 1498 303 25;
#X msg 1605 303 27;
#X msg 1707 303 29;
#X obj 605 437 ghost_sensor;
#X obj 487 437 ghost_sensor;
#X obj 713 437 ghost_sensor;
#X obj 921 437 ghost_sensor;
#X obj 817 437 ghost_sensor;
#X obj 1022 437 ghost_sensor;
#X obj 1120 437 ghost_sensor;
#X obj 1220 437 ghost_sensor;
#X obj 1320 437 ghost_sensor;
#X obj 1416 437 ghost_sensor;
#X obj 1515 437 ghost_sensor;
#X msg 569 412 8;
#X msg 686 412 10;
#X msg 794 412 12;
#X msg 898 412 14;
#X msg 1002 412 16;
#X msg 1200 412 20;
#X msg 1103 412 18;
#X msg 1301 412 22;
#X msg 1401 412 24;
#X msg 1497 412 26;
#X msg 1596 412 28;
#X msg 1183 303 19;
#X obj 312 570 spigot;
#X obj 176 570 spigot;
#X obj 433 570 spigot;
#X obj 578 570 spigot;
#X obj 702 570 spigot;
#X obj 822 570 spigot;
#X obj 980 570 spigot;
#X obj 1130 570 spigot;
#X obj 1243 570 spigot;
#X obj 1352 570 spigot;
#X obj 1464 570 spigot;
#X obj 1577 570 spigot;
#X obj 1689 570 spigot;
#X obj 1797 570 spigot;
#X obj 71 50 inlet;
#X obj 189 50 inlet;
#X obj 309 50 inlet;
#X obj 415 50 inlet;
#X obj 534 50 inlet;
#X obj 655 50 inlet;
#X obj 788 50 inlet;
#X obj 913 50 inlet;
#X obj 1032 50 inlet;
#X obj 1146 50 inlet;
#X obj 1258 50 inlet;
#X obj 1361 50 inlet;
#X obj 1462 50 inlet;
#X obj 1568 50 inlet;
#X obj 1670 50 inlet;
#X obj 41 1049 outlet;
#X obj 88 168 vibrato;
#X obj 199 167 vibrato;
#X obj 316 166 vibrato;
#X obj 424 166 vibrato;
#X obj 543 166 vibrato;
#X obj 665 166 vibrato;
#X obj 800 166 vibrato;
#X obj 927 167 vibrato;
#X obj 1045 166 vibrato;
#X obj 1159 166 vibrato;
#X obj 1271 166 vibrato;
#X obj 1373 166 vibrato;
#X obj 1479 166 vibrato;
#X obj 1586 166 vibrato;
#X obj 1684 166 vibrato;
#X obj 222 390 r lb;
#X obj 335 390 r lb;
#X obj 457 390 r lb;
#X obj 569 390 r lb;
#X obj 686 390 r lb;
#X obj 793 390 r lb;
#X obj 898 390 r lb;
#X obj 1004 390 r lb;
#X obj 1106 390 r lb;
#X obj 1202 390 r lb;
#X obj 1300 390 r lb;
#X obj 1401 390 r lb;
#X obj 1497 390 r lb;
#X obj 1596 390 r lb;
#X obj 41 935 + 12;
#X obj 88 192 s vibrato_1;
#X obj 199 192 s vibrato_2;
#X obj 316 192 s vibrato_3;
#X obj 424 192 s vibrato_4;
#X obj 543 192 s vibrato_5;
#X obj 665 192 s vibrato_6;
#X obj 800 192 s vibrato_7;
#X obj 927 192 s vibrato_8;
#X obj 1045 192 s vibrato_9;
#X obj 1159 192 s vibrato_10;
#X obj 1271 192 s vibrato_11;
#X obj 1373 192 s vibrato_12;
#X obj 1479 192 s vibrato_13;
#X obj 1586 192 s vibrato_14;
#X obj 1684 192 s vibrato_15;
#N canvas 64 64 647 375 array_definition 0;
#X obj 58 45 loadbang;
#X msg 90 156 const 0;
#X obj 90 180 array define notes-played;
#X obj 58 248 array size notes-played;
#X msg 58 224 29;
#X obj 104 106 s lb;
#X obj 58 69 t b b b;
#X text 141 104 Send bang to ghost sensor pitchshift values;
#X text 286 176 Define array;
#X text 234 249 Set to size 29 (as 29 possible sensor combinations)
;
#X connect 0 0 6 0;
#X connect 1 0 2 0;
#X connect 4 0 3 0;
#X connect 6 0 4 0;
#X connect 6 1 1 0;
#X connect 6 2 5 0;
#X restore 1747 6 pd array_definition;
#N canvas 96 96 1757 928 apply_vibrato 0;
#X obj 24 332 +;
#X obj 42 294 r vibrato_1;
#X obj 66 399 +;
#X obj 84 361 r vibrato_1;
#X obj 132 332 +;
#X obj 240 399 +;
#X obj 243 332 +;
#X obj 360 332 +;
#X obj 577 399 +;
#X obj 474 332 +;
#X obj 748 399 +;
#X obj 166 361 r vibrato_2;
#X obj 150 294 r vibrato_2;
#X obj 258 361 r vibrato_2;
#X obj 340 361 r vibrato_3;
#X obj 261 294 r vibrato_3;
#X obj 509 361 r vibrato_4;
#X obj 409 399 +;
#X obj 427 361 r vibrato_3;
#X obj 378 294 r vibrato_4;
#X obj 595 361 r vibrato_4;
#X obj 677 361 r vibrato_5;
#X obj 492 294 r vibrato_5;
#X obj 766 361 r vibrato_5;
#X obj 848 361 r vibrato_6;
#X obj 592 332 +;
#X obj 610 294 r vibrato_6;
#X obj 920 399 +;
#X obj 938 361 r vibrato_6;
#X obj 1020 361 r vibrato_7;
#X obj 696 332 +;
#X obj 714 294 r vibrato_7;
#X obj 24 81 inlet;
#X obj 1093 399 +;
#X obj 1111 361 r vibrato_7;
#X obj 1193 361 r vibrato_8;
#X obj 789 332 +;
#X obj 807 294 r vibrato_8;
#X obj 1268 399 +;
#X obj 1286 361 r vibrato_8;
#X obj 1368 361 r vibrato_9;
#X obj 887 332 +;
#X obj 905 294 r vibrato_9;
#X obj 119 492 +;
#X obj 137 455 r vibrato_9;
#X obj 219 455 r vibrato_10;
#X obj 977 332 +;
#X obj 995 294 r vibrato_10;
#X obj 316 492 +;
#X obj 334 455 r vibrato_10;
#X obj 423 455 r vibrato_11;
#X obj 1077 332 +;
#X obj 1095 294 r vibrato_11;
#X obj 513 492 +;
#X obj 531 455 r vibrato_11;
#X obj 620 455 r vibrato_12;
#X obj 1176 332 +;
#X obj 1194 294 r vibrato_12;
#X obj 704 492 +;
#X obj 722 455 r vibrato_12;
#X obj 811 455 r vibrato_13;
#X obj 1275 332 +;
#X obj 1293 294 r vibrato_13;
#X obj 896 492 +;
#X obj 914 455 r vibrato_13;
#X obj 1003 455 r vibrato_14;
#X obj 1377 332 +;
#X obj 1395 294 r vibrato_14;
#X obj 1082 492 +;
#X obj 1100 455 r vibrato_14;
#X obj 1189 455 r vibrato_15;
#X obj 1477 332 +;
#X obj 1495 294 r vibrato_15;
#X obj 24 637 outlet;
#X obj 24 118 unpack f f f f f f f f f f f f f f f f f f f f f f f
f f f f f f, f 222;
#X obj 24 605 pack f f f f f f f f f f f f f f f f f f f f f f f f
f f f f f, f 222;
#X text 22 37 List of pitchshift values;
#X text 22 57 Received from string_position_v2 abstraction;
#X text 1173 79 Receive vibrato values \, add to pitchshift values
\, and pack back into list;
#X text 22 665 List of pitchshift values with vibrato values added
;
#X text 23 683 Passed to string_position_v2 abstraction;
#X connect 0 0 75 0;
#X connect 1 0 0 1;
#X connect 2 0 75 1;
#X connect 3 0 2 1;
#X connect 4 0 75 2;
#X connect 5 0 75 3;
#X connect 6 0 75 4;
#X connect 7 0 75 6;
#X connect 8 0 75 7;
#X connect 9 0 75 8;
#X connect 10 0 75 9;
#X connect 11 0 2 1;
#X connect 12 0 4 1;
#X connect 13 0 5 1;
#X connect 14 0 5 1;
#X connect 15 0 6 1;
#X connect 16 0 17 1;
#X connect 17 0 75 5;
#X connect 18 0 17 1;
#X connect 19 0 7 1;
#X connect 20 0 8 1;
#X connect 21 0 8 1;
#X connect 22 0 9 1;
#X connect 23 0 10 1;
#X connect 24 0 10 1;
#X connect 25 0 75 10;
#X connect 26 0 25 1;
#X connect 27 0 75 11;
#X connect 28 0 27 1;
#X connect 29 0 27 1;
#X connect 30 0 75 12;
#X connect 31 0 30 1;
#X connect 32 0 74 0;
#X connect 33 0 75 13;
#X connect 34 0 33 1;
#X connect 35 0 33 1;
#X connect 36 0 75 14;
#X connect 37 0 36 1;
#X connect 38 0 75 15;
#X connect 39 0 38 1;
#X connect 40 0 38 1;
#X connect 41 0 75 16;
#X connect 42 0 41 1;
#X connect 43 0 75 17;
#X connect 44 0 43 1;
#X connect 45 0 43 1;
#X connect 46 0 75 18;
#X connect 47 0 46 1;
#X connect 48 0 75 19;
#X connect 49 0 48 1;
#X connect 50 0 48 1;
#X connect 51 0 75 20;
#X connect 52 0 51 1;
#X connect 53 0 75 21;
#X connect 54 0 53 1;
#X connect 55 0 53 1;
#X connect 56 0 75 22;
#X connect 57 0 56 1;
#X connect 58 0 75 23;
#X connect 59 0 58 1;
#X connect 60 0 58 1;
#X connect 61 0 75 24;
#X connect 62 0 61 1;
#X connect 63 0 75 25;
#X connect 64 0 63 1;
#X connect 65 0 63 1;
#X connect 66 0 75 26;
#X connect 67 0 66 1;
#X connect 68 0 75 27;
#X connect 69 0 68 1;
#X connect 70 0 68 1;
#X connect 71 0 75 28;
#X connect 72 0 71 1;
#X connect 74 0 0 0;
#X connect 74 1 2 0;
#X connect 74 2 4 0;
#X connect 74 3 5 0;
#X connect 74 4 6 0;
#X connect 74 5 17 0;
#X connect 74 6 7 0;
#X connect 74 7 8 0;
#X connect 74 8 9 0;
#X connect 74 9 10 0;
#X connect 74 10 25 0;
#X connect 74 11 27 0;
#X connect 74 12 30 0;
#X connect 74 13 33 0;
#X connect 74 14 36 0;
#X connect 74 15 38 0;
#X connect 74 16 41 0;
#X connect 74 17 43 0;
#X connect 74 18 46 0;
#X connect 74 19 48 0;
#X connect 74 20 51 0;
#X connect 74 21 53 0;
#X connect 74 22 56 0;
#X connect 74 23 58 0;
#X connect 74 24 61 0;
#X connect 74 25 63 0;
#X connect 74 26 66 0;
#X connect 74 27 68 0;
#X connect 74 28 71 0;
#X connect 75 0 73 0;
#X restore 41 767 pd apply_vibrato;
#X f 17;
#X text 951 738 This abstraction take the input from the capacitive
sensors and maps them to various pitch-related parameters. The most
major of these is the mapping of sensor outputing non-zero signal to
the semitone values chromatic scale. Each sensor is mapped a whole
tone higher than the previous sensor \, with a combination of two sensor
resulting in the semitone that falls in the middle \, e.g.;
#X text 952 847 Capacitive Sensor 1 = 1 semitone pitchshift;
#X text 952 863 Capacitive Sensors 1 + 2 = 2 semitone pitchshift;
#X text 952 882 Capacitive Sensor 2 = 3 semitone pitchshift;
#X text 952 906 ect.;
#X text 954 935 The abstractions funtions firstly by declaring an array
of size 29 (array_definition subpatch). The capacitive sensor values
are constantly read in and packed together in a list which is used
to set the array. Non-zero sensor values result in that index of the
list (and then array) being set to the sensor's correpsonding semitone
pitchshift value. The maximum pitchshift value in the array is then
selected and passed forward in the main patch. This provides a functionality
similar to a string instrument \, where holding a note and then placing
the finger higher upon the neck plays the higher note.;
#X text 1405 738 This process is complicated a little through the functionality
that a combination of sensors is also mapped to a semitone value. This
is implimented through the use of the ghost_sensor abstraction. As
the name suggests \, this takes the input from the two adjacent notes
and funtions as a dummy sensor \, outputting the combination value.
Due to the fact that the maximum value of the array is selected \,
it also disables the subsequenct sensor output activated.;
#X text 1405 919 There is also an additional vibrato functionality.
This works by calculating the rate of change of the capacitive sensor
singal \, scaling it to a range of around -0.1-0.1 \, and adding it
to the semitone pitchshift value;
#X text 31 2 Capacitive sensor signals;
#X text 32 20 Received from trill_input abstraction;
#X text 32 76 Select for zero/non-zero;
#X text 31 131 Calculate vibrato values in abstration and send to apply_vibrato
subpatch;
#X text 30 225 Select semitone pitchshift value (zero signal = 0 \,
non-zero signal = semitone value). This is sent to pack for corresponding
index \, and ghost_sensor abstration for adjacent index;
#X text 1555 370 Set semitone values for ghost_sensor abstraction;
#X text 8 414 Calculate ghost sensor values;
#X text 10 545 Block adjacent value when ghost sensor is activated
;
#X text 182 766 Add vibrato values to list;
#X text 241 857 Set array with list;
#X text 206 888 Select maximum value in array;
#X text 76 935 Add one octave to pitchshift values;
#X text 97 953 This is because when working with bass heavy speakers
(e.g. subwoofers) the pitch of the feedback was so low that the lower
octave of the capacitive sensors was almost unusable except for making
very low rumbling. Adding one octave is a bit of a compromise.;
#X text 40 1073 Pitchshift value;
#X text 40 1092 Passed to pitchshifting abstraction;
#X text 1405 863 When no sensors are active \, the array is filled
with zeros and therefore zero is maximum value. Therefore no processing
has to take place for the 'open string'.;
#X text 1746 28 Define array on load;
#X connect 1 0 136 0;
#X connect 2 0 1 0;
#X connect 2 1 0 0;
#X connect 3 0 7 0;
#X connect 3 0 107 0;
#X connect 3 1 6 0;
#X connect 3 1 107 0;
#X connect 4 0 8 0;
#X connect 4 0 108 0;
#X connect 4 1 9 0;
#X connect 4 1 108 0;
#X connect 5 0 10 0;
#X connect 5 0 109 0;
#X connect 5 1 11 0;
#X connect 5 1 109 0;
#X connect 6 0 21 0;
#X connect 6 0 14 0;
#X connect 7 0 21 0;
#X connect 7 0 14 0;
#X connect 8 0 21 2;
#X connect 8 0 14 1;
#X connect 8 0 12 0;
#X connect 9 0 78 0;
#X connect 9 0 12 0;
#X connect 10 0 21 4;
#X connect 10 0 12 1;
#X connect 10 0 19 0;
#X connect 11 0 77 0;
#X connect 11 0 12 2;
#X connect 11 0 19 0;
#X connect 12 0 21 3;
#X connect 12 1 21 4;
#X connect 12 2 77 1;
#X connect 13 0 12 3;
#X connect 14 0 21 1;
#X connect 14 1 21 2;
#X connect 14 2 78 1;
#X connect 15 0 14 3;
#X connect 16 0 17 0;
#X connect 16 0 110 0;
#X connect 16 1 18 0;
#X connect 16 1 110 0;
#X connect 17 0 21 6;
#X connect 17 0 55 0;
#X connect 17 0 19 1;
#X connect 18 0 79 0;
#X connect 18 0 55 0;
#X connect 18 0 19 2;
#X connect 19 0 21 5;
#X connect 19 1 21 6;
#X connect 19 2 79 1;
#X connect 20 0 19 3;
#X connect 21 0 153 0;
#X connect 22 0 23 0;
#X connect 22 0 111 0;
#X connect 22 1 26 0;
#X connect 22 1 111 0;
#X connect 23 0 21 8;
#X connect 23 0 55 1;
#X connect 23 0 54 0;
#X connect 24 0 25 0;
#X connect 24 0 112 0;
#X connect 24 1 27 0;
#X connect 24 1 112 0;
#X connect 25 0 21 10;
#X connect 25 0 54 1;
#X connect 25 0 56 0;
#X connect 26 0 80 0;
#X connect 26 0 55 2;
#X connect 26 0 54 0;
#X connect 27 0 81 0;
#X connect 27 0 54 2;
#X connect 27 0 56 0;
#X connect 28 0 29 0;
#X connect 28 0 113 0;
#X connect 28 1 30 0;
#X connect 28 1 113 0;
#X connect 29 0 21 12;
#X connect 29 0 58 0;
#X connect 29 0 56 1;
#X connect 30 0 82 0;
#X connect 30 0 58 0;
#X connect 30 0 56 2;
#X connect 31 0 32 0;
#X connect 31 0 114 0;
#X connect 31 1 47 0;
#X connect 31 1 114 0;
#X connect 32 0 21 14;
#X connect 32 0 58 1;
#X connect 32 0 57 0;
#X connect 33 0 34 0;
#X connect 33 0 115 0;
#X connect 33 1 48 0;
#X connect 33 1 115 0;
#X connect 34 0 21 16;
#X connect 34 0 57 1;
#X connect 34 0 59 0;
#X connect 35 0 36 0;
#X connect 35 0 116 0;
#X connect 35 1 76 0;
#X connect 35 1 116 0;
#X connect 36 0 21 18;
#X connect 36 0 59 1;
#X connect 36 0 60 0;
#X connect 37 0 38 0;
#X connect 37 0 117 0;
#X connect 37 1 49 0;
#X connect 37 1 117 0;
#X connect 38 0 21 20;
#X connect 38 0 60 1;
#X connect 38 0 61 0;
#X connect 39 0 40 0;
#X connect 39 0 118 0;
#X connect 39 1 50 0;
#X connect 39 1 118 0;
#X connect 40 0 21 22;
#X connect 40 0 61 1;
#X connect 40 0 62 0;
#X connect 41 0 42 0;
#X connect 41 0 119 0;
#X connect 41 1 51 0;
#X connect 41 1 119 0;
#X connect 42 0 21 24;
#X connect 42 0 62 1;
#X connect 42 0 63 0;
#X connect 43 0 44 0;
#X connect 43 0 120 0;
#X connect 43 1 52 0;
#X connect 43 1 120 0;
#X connect 44 0 21 26;
#X connect 44 0 63 1;
#X connect 44 0 64 0;
#X connect 45 0 46 0;
#X connect 45 0 121 0;
#X connect 45 1 53 0;
#X connect 45 1 121 0;
#X connect 46 0 21 28;
#X connect 46 0 64 1;
#X connect 47 0 83 0;
#X connect 47 0 58 2;
#X connect 47 0 57 0;
#X connect 48 0 84 0;
#X connect 48 0 57 2;
#X connect 48 0 59 0;
#X connect 49 0 86 0;
#X connect 49 0 60 2;
#X connect 49 0 61 0;
#X connect 50 0 87 0;
#X connect 50 0 61 2;
#X connect 50 0 62 0;
#X connect 51 0 88 0;
#X connect 51 0 62 2;
#X connect 51 0 63 0;
#X connect 52 0 89 0;
#X connect 52 0 64 0;
#X connect 52 0 63 2;
#X connect 53 0 90 0;
#X connect 53 0 64 2;
#X connect 54 0 21 9;
#X connect 54 1 21 10;
#X connect 54 2 81 1;
#X connect 55 0 21 7;
#X connect 55 1 21 8;
#X connect 55 2 80 1;
#X connect 56 0 21 11;
#X connect 56 1 21 12;
#X connect 56 2 82 1;
#X connect 57 0 21 15;
#X connect 57 1 21 16;
#X connect 57 2 84 1;
#X connect 58 0 21 13;
#X connect 58 1 21 14;
#X connect 58 2 83 1;
#X connect 59 0 21 17;
#X connect 59 1 21 18;
#X connect 59 2 85 1;
#X connect 60 0 21 19;
#X connect 60 1 21 20;
#X connect 60 2 86 1;
#X connect 61 0 21 21;
#X connect 61 1 21 22;
#X connect 61 2 87 1;
#X connect 62 0 21 23;
#X connect 62 1 21 24;
#X connect 62 2 88 1;
#X connect 63 0 21 25;
#X connect 63 1 21 26;
#X connect 63 2 89 1;
#X connect 64 0 21 27;
#X connect 64 1 21 28;
#X connect 64 2 90 1;
#X connect 65 0 55 3;
#X connect 66 0 54 3;
#X connect 67 0 56 3;
#X connect 68 0 58 3;
#X connect 69 0 57 3;
#X connect 70 0 60 3;
#X connect 71 0 59 3;
#X connect 72 0 61 3;
#X connect 73 0 62 3;
#X connect 74 0 63 3;
#X connect 75 0 64 3;
#X connect 76 0 85 0;
#X connect 76 0 59 2;
#X connect 76 0 60 0;
#X connect 77 0 21 4;
#X connect 78 0 21 2;
#X connect 79 0 21 6;
#X connect 80 0 21 8;
#X connect 81 0 21 10;
#X connect 82 0 21 12;
#X connect 83 0 21 14;
#X connect 84 0 21 16;
#X connect 85 0 21 18;
#X connect 86 0 21 20;
#X connect 87 0 21 22;
#X connect 88 0 21 24;
#X connect 89 0 21 26;
#X connect 90 0 21 28;
#X connect 91 0 3 0;
#X connect 92 0 4 0;
#X connect 93 0 5 0;
#X connect 94 0 16 0;
#X connect 95 0 22 0;
#X connect 96 0 24 0;
#X connect 97 0 28 0;
#X connect 98 0 31 0;
#X connect 99 0 33 0;
#X connect 100 0 35 0;
#X connect 101 0 37 0;
#X connect 102 0 39 0;
#X connect 103 0 41 0;
#X connect 104 0 43 0;
#X connect 105 0 45 0;
#X connect 107 0 137 0;
#X connect 108 0 138 0;
#X connect 109 0 139 0;
#X connect 110 0 140 0;
#X connect 111 0 141 0;
#X connect 112 0 142 0;
#X connect 113 0 143 0;
#X connect 114 0 144 0;
#X connect 115 0 145 0;
#X connect 116 0 146 0;
#X connect 117 0 147 0;
#X connect 118 0 148 0;
#X connect 119 0 149 0;
#X connect 120 0 150 0;
#X connect 121 0 151 0;
#X connect 122 0 15 0;
#X connect 123 0 13 0;
#X connect 124 0 20 0;
#X connect 125 0 65 0;
#X connect 126 0 66 0;
#X connect 127 0 67 0;
#X connect 128 0 68 0;
#X connect 129 0 69 0;
#X connect 130 0 71 0;
#X connect 131 0 70 0;
#X connect 132 0 72 0;
#X connect 133 0 73 0;
#X connect 134 0 74 0;
#X connect 135 0 75 0;
#X connect 136 0 106 0;
#X connect 153 0 2 0;
