#N canvas -4 54 1913 583 12;
#X obj 643 169 r trill_10;
#X obj 717 169 r trill_11;
#X obj 791 168 r trill_12;
#X obj 865 168 r trill_13;
#X obj 940 168 r trill_14;
#X obj 999 245 r trill_15;
#X obj 1073 245 r trill_16;
#X obj 1147 244 r trill_17;
#X obj 1221 244 r trill_18;
#X obj 1296 244 r trill_19;
#X obj 1354 322 r trill_20;
#X obj 1430 323 r trill_21;
#X obj 1504 322 r trill_22;
#X obj 1578 322 r trill_23;
#X obj 1653 322 r trill_24;
#X obj 9 24 r trill_0;
#X obj 80 24 r trill_1;
#X obj 151 24 r trill_2;
#X obj 221 24 r trill_3;
#X obj 291 23 r trill_4;
#X obj 314 96 r trill_5;
#X obj 384 96 r trill_6;
#X obj 454 95 r trill_7;
#X obj 523 95 r trill_8;
#X obj 592 95 r trill_9;
#X obj 1711 405 r trill_25;
#X obj 1787 406 r trill_26;
#X obj 1861 405 r trill_27;
#X obj 1935 405 r trill_28;
#X obj 2010 405 r trill_29;
#X obj 9 48 outlet;
#X obj 80 48 outlet;
#X obj 151 48 outlet;
#X obj 221 48 outlet;
#X obj 291 47 outlet;
#X obj 314 120 outlet;
#X obj 384 120 outlet;
#X obj 454 119 outlet;
#X obj 523 119 outlet;
#X obj 592 119 outlet;
#X obj 643 193 outlet;
#X obj 717 193 outlet;
#X obj 791 192 outlet;
#X obj 865 192 outlet;
#X obj 940 192 outlet;
#X obj 999 269 outlet;
#X obj 1073 269 outlet;
#X obj 1147 268 outlet;
#X obj 1221 268 outlet;
#X obj 1296 268 outlet;
#X obj 1354 346 outlet;
#X obj 1430 347 outlet;
#X obj 1504 346 outlet;
#X obj 1578 346 outlet;
#X obj 1653 346 outlet;
#X obj 1711 429 outlet;
#X obj 1787 430 outlet;
#X obj 1861 429 outlet;
#X obj 1935 429 outlet;
#X obj 2010 429 outlet;
#X text 37 383 Passes the trill data from the trill_init abstraction.
Nothing much happens here currently \, however this is separated out
from the trill_init abstraction as a holdover from earlier versions
when there was uncertainty about how much preprocessing would have
to be done on the sensor data. I've left it like this in case any future
modifications are made to the patch which require preprossing the capacitive
sensor data in some form beyond that carried out on the Trill Craft.
This abstraction can serve as a location for this instead of cluttering
up the initialisation abstraction.;
#X connect 0 0 40 0;
#X connect 1 0 41 0;
#X connect 2 0 42 0;
#X connect 3 0 43 0;
#X connect 4 0 44 0;
#X connect 5 0 45 0;
#X connect 6 0 46 0;
#X connect 7 0 47 0;
#X connect 8 0 48 0;
#X connect 9 0 49 0;
#X connect 10 0 50 0;
#X connect 11 0 51 0;
#X connect 12 0 52 0;
#X connect 13 0 53 0;
#X connect 14 0 54 0;
#X connect 15 0 30 0;
#X connect 16 0 31 0;
#X connect 17 0 32 0;
#X connect 18 0 33 0;
#X connect 19 0 34 0;
#X connect 20 0 35 0;
#X connect 21 0 36 0;
#X connect 22 0 37 0;
#X connect 23 0 38 0;
#X connect 24 0 39 0;
#X connect 25 0 55 0;
#X connect 26 0 56 0;
#X connect 27 0 57 0;
#X connect 28 0 58 0;
#X connect 29 0 59 0;
