#N canvas 262 284 1334 357 12;
#X obj 53 23 loadbang;
#X obj 53 85 s bela_setTrill;
#X obj 54 119 r bela_trill;
#X obj 54 143 route mycraft;
#X obj 54 169 unpack f f f f f f f f f f f f f f f f f f f f f f f
f f f f f f f, f 67;
#X obj 132 210 s trill_1;
#X obj 54 208 s trill_0;
#X obj 214 210 s trill_2;
#X obj 292 211 s trill_3;
#X obj 371 211 s trill_4;
#X obj 449 212 s trill_5;
#X obj 531 212 s trill_6;
#X obj 609 213 s trill_7;
#X obj 688 213 s trill_8;
#X obj 766 214 s trill_9;
#X obj 848 214 s trill_10;
#X obj 926 215 s trill_11;
#X obj 1005 215 s trill_12;
#X obj 1083 216 s trill_13;
#X obj 1165 216 s trill_14;
#X obj 102 246 s trill_15;
#X obj 180 247 s trill_16;
#X obj 262 247 s trill_17;
#X obj 341 248 s trill_18;
#X obj 419 248 s trill_19;
#X obj 497 249 s trill_20;
#X obj 579 249 s trill_21;
#X obj 657 250 s trill_22;
#X obj 736 250 s trill_23;
#X obj 814 251 s trill_24;
#X obj 896 251 s trill_25;
#X obj 974 252 s trill_26;
#X obj 1053 252 s trill_27;
#X obj 1131 253 s trill_28;
#X obj 1213 253 s trill_29;
#X msg 53 48 new mycraft 1 CRAFT \, prescaler mycraft 3 \, threshold
mycraft 0.007;
#X text 493 39 Initialises the parameters for the Trill Craft;
#X text 494 83 Sets threshold to 0.007 - all readings under this value
will return 0;
#X text 166 136 Read the trill sensors \, unpack and send further to
patch;
#X text 493 55 Sets the prescaler to 3 (min 1 \, max 8) - this represents
the time taken to charge the capacitor;
#X connect 0 0 35 0;
#X connect 2 0 3 0;
#X connect 3 0 4 0;
#X connect 4 0 6 0;
#X connect 4 1 5 0;
#X connect 4 2 7 0;
#X connect 4 3 8 0;
#X connect 4 4 9 0;
#X connect 4 5 10 0;
#X connect 4 6 11 0;
#X connect 4 7 12 0;
#X connect 4 8 13 0;
#X connect 4 9 14 0;
#X connect 4 10 15 0;
#X connect 4 11 16 0;
#X connect 4 12 17 0;
#X connect 4 13 18 0;
#X connect 4 14 19 0;
#X connect 4 15 20 0;
#X connect 4 16 21 0;
#X connect 4 17 22 0;
#X connect 4 18 23 0;
#X connect 4 19 24 0;
#X connect 4 20 25 0;
#X connect 4 21 26 0;
#X connect 4 22 27 0;
#X connect 4 23 28 0;
#X connect 4 24 29 0;
#X connect 4 25 30 0;
#X connect 4 26 31 0;
#X connect 4 27 32 0;
#X connect 4 28 33 0;
#X connect 4 29 34 0;
#X connect 35 0 1 0;
